<svg width="109" height="26" viewBox="0 0 109 26" fill="none" xmlns="http://www.w3.org/2000/svg">
<g clip-path="url(#clip0_6878_33554)">
<path d="M20.8125 12.9998C20.8125 17.3149 17.3154 20.812 13.0003 20.812C8.6851 20.812 5.18799 17.3149 5.18799 12.9998C5.18799 8.68462 8.68851 5.1875 13.0003 5.1875C13.0889 5.1875 13.1775 5.1875 13.2661 5.19432C13.0923 5.6681 13.0003 6.17937 13.0003 6.7111C13.0003 9.16181 14.9874 11.1455 17.4381 11.1455C18.5152 11.1455 19.5003 10.7638 20.2672 10.1264C20.6182 11.016 20.8125 11.9874 20.8125 12.9998Z" fill="#C92F88"/>
<path d="M23.8938 20.0933C27.8102 14.0773 26.1093 6.02646 20.0933 2.10669C14.0807 -1.80967 6.02646 -0.108829 2.10669 5.90716C-1.80967 11.9232 -0.108829 19.9774 5.90716 23.8938C11.9232 27.8102 19.9774 26.1093 23.8938 20.0933ZM13.0002 22.8815C7.54324 22.8815 3.11901 18.4572 3.11901 13.0002C3.11901 7.54324 7.54324 3.11902 13.0002 3.11902C18.4572 3.11902 22.8815 7.54324 22.8815 13.0002C22.8815 18.4572 18.4572 22.8815 13.0002 22.8815Z" fill="url(#paint0_linear_6878_33554)"/>
<path d="M36.103 4.76866C36.103 4.63573 36.1473 4.51984 36.236 4.42441C36.3246 4.32897 36.4507 4.28125 36.6143 4.28125H38.823C38.9559 4.28125 39.0718 4.32556 39.1741 4.41077C39.2729 4.49598 39.3241 4.61528 39.3241 4.77207V17.7618H46.2944C46.4274 17.7618 46.5432 17.8096 46.6387 17.9016C46.7341 17.9936 46.7818 18.1197 46.7818 18.2731V20.3114C46.7818 20.4443 46.7375 20.5602 46.6489 20.6625C46.5603 20.7613 46.441 20.8125 46.2944 20.8125H36.5939C36.2666 20.8125 36.1064 20.6488 36.1064 20.3216V4.76866H36.103Z" fill="white"/>
<path d="M52.1568 24.8991C52.0886 25.0627 52.0034 25.182 51.9012 25.2604C51.7989 25.3388 51.6592 25.3763 51.4887 25.3763H49.3959C49.188 25.3763 49.0449 25.3422 48.9665 25.2706C48.8881 25.199 48.8506 25.1138 48.8506 25.0082C48.8506 24.957 48.8608 24.882 48.8778 24.7866C48.8949 24.6912 48.9119 24.6332 48.929 24.6196L50.8889 19.6193L45.9227 7.51917C45.9227 7.51917 45.9193 7.4919 45.9124 7.48509V7.38624C45.875 7.30444 45.8579 7.21241 45.8579 7.10674C45.8579 6.98063 45.9022 6.88178 45.9908 6.8068C46.0795 6.73181 46.2158 6.69432 46.4033 6.69432H48.4177C48.7381 6.69432 48.9562 6.85111 49.0755 7.16128L49.2766 7.68619C49.4266 8.10202 49.5936 8.56899 49.7777 9.08367C49.9617 9.59835 50.156 10.1335 50.3571 10.6823C50.5582 11.231 50.7593 11.7832 50.9638 12.3354C51.1683 12.8876 51.3592 13.4091 51.5433 13.8931C51.7239 14.3805 51.8909 14.8168 52.0375 15.2053C52.1875 15.5939 52.3068 15.9007 52.3954 16.1256L55.6914 7.16469C55.7596 7.00108 55.8448 6.88178 55.9471 6.80339C56.0493 6.72499 56.1891 6.6875 56.3595 6.6875H58.4523C58.6602 6.6875 58.8034 6.72158 58.8818 6.79316C58.9602 6.86474 58.9977 6.94995 58.9977 7.05562C58.9977 7.10674 58.9874 7.18173 58.9704 7.27717C58.9533 7.37261 58.9363 7.43055 58.9193 7.44419L52.1602 24.9025L52.1568 24.8991Z" fill="white"/>
<path d="M60.8523 7.67619C60.8387 7.61825 60.8251 7.56371 60.8148 7.5194C60.8046 7.47509 60.7944 7.42737 60.7876 7.37624C60.7808 7.32512 60.7773 7.28081 60.7773 7.24331C60.7773 7.10356 60.8285 6.98767 60.9273 6.90246C61.0262 6.81725 61.1761 6.77294 61.3772 6.77294H63.3814C63.5587 6.77294 63.7052 6.81725 63.8143 6.90587C63.9234 6.99449 64.0154 7.12061 64.0802 7.28421L64.2813 7.78526C64.4312 8.20792 64.5983 8.68511 64.7891 9.21001C64.98 9.73833 65.1743 10.2803 65.372 10.8427C65.5697 11.4051 65.7742 11.9607 65.9719 12.5128C66.1696 13.065 66.3605 13.5865 66.5411 14.0705C66.7184 14.5579 66.8785 14.9874 67.0183 15.3623C67.158 15.7373 67.2705 16.0236 67.3523 16.2247C67.4784 15.86 67.625 15.4442 67.792 14.9738C67.959 14.5034 68.1397 14.0024 68.3306 13.4706C68.5249 12.9389 68.7191 12.3935 68.9202 11.8277C69.1213 11.2653 69.3156 10.7098 69.5099 10.1678C69.7008 9.62585 69.8848 9.10776 70.0621 8.61353C70.2359 8.1193 70.3927 7.67278 70.5359 7.27058C70.6109 7.09334 70.6995 6.96382 70.8085 6.88542C70.9142 6.80702 71.0642 6.76953 71.2482 6.76953H73.3308C73.5592 6.76953 73.7194 6.80702 73.8046 6.88201C73.8898 6.957 73.9341 7.05244 73.9341 7.17173C73.9341 7.22968 73.9239 7.30466 73.9069 7.39329C73.8898 7.48191 73.8728 7.55008 73.8557 7.59439L68.5555 20.4649C68.4976 20.5705 68.4226 20.6694 68.3374 20.7648C68.2522 20.8602 68.0954 20.908 67.8636 20.908H66.8411C66.5718 20.908 66.3945 20.8603 66.3025 20.7682C66.2105 20.6762 66.1423 20.5739 66.0946 20.4615L60.8523 7.66937V7.67619Z" fill="white"/>
<path d="M86.2046 19.2549C85.5502 19.8105 84.8378 20.2502 84.0607 20.5672C83.2835 20.8876 82.4348 21.0444 81.5043 21.0444C80.5022 21.0444 79.5512 20.8569 78.6548 20.4752C77.7584 20.0968 76.971 19.5787 76.2961 18.9175C75.6212 18.2562 75.0827 17.4825 74.6873 16.5963C74.2919 15.7101 74.0908 14.7523 74.0908 13.7298C74.0908 13.0685 74.1726 12.4311 74.3362 11.8142C74.4998 11.1973 74.7316 10.6212 75.0316 10.0827C75.3315 9.54413 75.6962 9.0499 76.1291 8.60339C76.5586 8.15347 77.0392 7.77172 77.5709 7.45132C78.1026 7.13092 78.6752 6.88551 79.2956 6.71167C79.9159 6.53784 80.5704 6.44922 81.2589 6.44922C81.8247 6.44922 82.3803 6.51739 82.9291 6.65373C83.4778 6.79007 83.9993 6.98435 84.4935 7.23658C84.9878 7.48881 85.4479 7.79557 85.8808 8.15347C86.3103 8.51477 86.6886 8.92038 87.0158 9.37371C87.4623 9.99746 87.7862 10.6689 87.9941 11.3881C88.202 12.1073 88.3076 12.9049 88.3076 13.7809C88.3076 13.9956 88.2974 14.1763 88.2804 14.3194C88.2633 14.4626 88.2156 14.5819 88.1406 14.6705C88.0656 14.7591 87.9566 14.8239 87.8066 14.8648C87.6566 14.9057 87.4521 14.9261 87.1829 14.9261H77.3084C77.4039 15.4613 77.5879 15.9351 77.8606 16.3441C78.1299 16.7565 78.4537 17.1042 78.8252 17.3905C79.1967 17.6768 79.6024 17.8915 80.0386 18.0347C80.4749 18.1778 80.9146 18.2528 81.3509 18.2528C81.6849 18.2528 82.0053 18.2188 82.3155 18.154C82.6223 18.0858 82.912 17.9972 83.1779 17.8881C83.4437 17.7756 83.6926 17.6495 83.9175 17.503C84.1425 17.3564 84.3436 17.2064 84.514 17.053C84.514 17.0462 84.514 17.0428 84.5242 17.0428C84.6128 16.961 84.6981 16.8963 84.7799 16.8485C84.8617 16.8008 84.9469 16.777 85.0355 16.777C85.1037 16.777 85.1787 16.8008 85.2639 16.8451C85.3491 16.8894 85.4309 16.9644 85.5127 17.0667C85.7138 17.3121 85.8842 17.5166 86.024 17.6802C86.1637 17.8438 86.2796 17.9802 86.3682 18.0926C86.4568 18.2051 86.5216 18.3006 86.5625 18.3824C86.6034 18.4642 86.6239 18.546 86.6239 18.6278C86.6239 18.8357 86.4841 19.0436 86.2012 19.2515L86.2046 19.2549ZM81.2623 9.21351C80.826 9.21351 80.3965 9.2919 79.9807 9.4521C79.5649 9.6123 79.1831 9.83045 78.8389 10.1031C78.4946 10.3758 78.1946 10.6996 77.9356 11.0711C77.68 11.4427 77.4925 11.8449 77.3732 12.2743H85.2536C85.1343 11.821 84.9537 11.4086 84.7151 11.0336C84.4731 10.6587 84.1834 10.3349 83.8425 10.0656C83.5017 9.79636 83.1131 9.58503 82.6734 9.43847C82.2337 9.2919 81.7633 9.21692 81.2589 9.21692L81.2623 9.21351Z" fill="white"/>
<path d="M90.3115 3.14658C90.3115 2.9523 90.3626 2.79551 90.4683 2.66939C90.574 2.54328 90.7308 2.47852 90.9455 2.47852H92.8952C93.0451 2.47852 93.1815 2.54328 93.311 2.66939C93.4405 2.79551 93.5053 2.9557 93.5053 3.14658V20.1447C93.5053 20.3663 93.4439 20.5333 93.3212 20.6458C93.1985 20.7583 93.0349 20.8128 92.827 20.8128H90.9659C90.7273 20.8128 90.5603 20.7583 90.4581 20.6458C90.3592 20.5333 90.3081 20.3663 90.3081 20.1447V3.14658H90.3115Z" fill="white"/>
<path d="M101.454 24.8991C101.386 25.0627 101.301 25.182 101.199 25.2604C101.096 25.3388 100.957 25.3763 100.786 25.3763H98.6933C98.4854 25.3763 98.3422 25.3422 98.2638 25.2706C98.1854 25.199 98.1479 25.1138 98.1479 25.0082C98.1479 24.957 98.1582 24.882 98.1752 24.7866C98.1922 24.6912 98.2093 24.6332 98.2263 24.6196L100.186 19.6193L95.22 7.51917C95.22 7.51917 95.2166 7.4919 95.2098 7.48509V7.38624C95.1723 7.30444 95.1553 7.21241 95.1553 7.10674C95.1553 6.98063 95.1996 6.88178 95.2882 6.8068C95.3768 6.73181 95.5132 6.69432 95.7006 6.69432H97.715C98.0354 6.69432 98.2536 6.85111 98.3729 7.16128L98.574 7.68619C98.724 8.10202 98.891 8.56899 99.075 9.08367C99.2591 9.59835 99.4534 10.1335 99.6545 10.6823C99.8556 11.231 100.057 11.7832 100.261 12.3354C100.466 12.8876 100.657 13.4091 100.841 13.8931C101.021 14.3805 101.188 14.8168 101.335 15.2053C101.485 15.5939 101.604 15.9007 101.693 16.1256L104.989 7.16469C105.057 7.00108 105.142 6.88178 105.244 6.80339C105.347 6.72499 105.486 6.6875 105.657 6.6875H107.75C107.958 6.6875 108.101 6.72158 108.179 6.79316C108.258 6.86474 108.295 6.94995 108.295 7.05562C108.295 7.10674 108.285 7.18173 108.268 7.27717C108.251 7.37261 108.234 7.43055 108.217 7.44419L101.458 24.9025L101.454 24.8991Z" fill="white"/>
</g>
<defs>
<linearGradient id="paint0_linear_6878_33554" x1="20.1156" y1="2.10592" x2="5.93021" y2="23.8912" gradientUnits="userSpaceOnUse">
<stop stop-color="#C92F88"/>
<stop offset="0.52" stop-color="#5858A2"/>
<stop offset="1" stop-color="#0FAAC0"/>
</linearGradient>
<clipPath id="clip0_6878_33554">
<rect width="108.291" height="26" fill="white"/>
</clipPath>
</defs>
</svg>
